<?xml version="1.0" encoding="utf-8"?>
<!-- Generator: Adobe Illustrator 24.0.2, SVG Export Plug-In . SVG Version: 6.00 Build 0)  -->
<!DOCTYPE svg PUBLIC "-//W3C//DTD SVG 1.1//EN" "http://www.w3.org/Graphics/SVG/1.1/DTD/svg11.dtd" [
	<!ENTITY ns_extend "http://ns.adobe.com/Extensibility/1.0/">
	<!ENTITY ns_ai "http://ns.adobe.com/AdobeIllustrator/10.0/">
	<!ENTITY ns_graphs "http://ns.adobe.com/Graphs/1.0/">
	<!ENTITY ns_vars "http://ns.adobe.com/Variables/1.0/">
	<!ENTITY ns_imrep "http://ns.adobe.com/ImageReplacement/1.0/">
	<!ENTITY ns_sfw "http://ns.adobe.com/SaveForWeb/1.0/">
	<!ENTITY ns_custom "http://ns.adobe.com/GenericCustomNamespace/1.0/">
	<!ENTITY ns_adobe_xpath "http://ns.adobe.com/XPath/1.0/">
]>
<svg version="1.1" id="Ebene_1" xmlns:x="&ns_extend;" xmlns:i="&ns_ai;" xmlns:graph="&ns_graphs;"
	 xmlns="http://www.w3.org/2000/svg" xmlns:xlink="http://www.w3.org/1999/xlink" x="0px" y="0px" width="32px" height="36px"
	 viewBox="0 0 32 36" style="enable-background:new 0 0 32 36;" xml:space="preserve">
<style type="text/css">
	.st0{fill:#FF0099;}
	.st1{fill:#FFFFFF;}
</style>
<metadata>
	<sfw  xmlns="&ns_sfw;">
		<slices></slices>
		<sliceSourceBounds  bottomLeftOrigin="true" height="34" width="30" x="1" y="1"></sliceSourceBounds>
	</sfw>
</metadata>
<g>
	<path class="st0" d="M31,16c0-8.3-6.7-15-15-15S1,7.7,1,16c0,7.3,5.2,13.4,12.1,14.7L16,35l2.9-4.3C25.8,29.3,31,23.3,31,16z"/>
</g>
<path class="st1" d="M26.474,10.787c-1.156-1.157-2.757-1.873-4.521-1.873c-0.992,0-1.933,0.226-2.772,0.63
	c-0.027-0.244-0.138-0.463-0.302-0.627c-0.189-0.19-0.453-0.309-0.743-0.309c-0.289,0-0.554,0.119-0.743,0.309
	c-0.007,0.007-0.013,0.015-0.02,0.022c-0.007-0.007-0.013-0.015-0.02-0.022c-0.189-0.19-0.453-0.309-0.743-0.309
	c-0.289,0-0.554,0.119-0.743,0.309c-0.007,0.007-0.013,0.015-0.02,0.022c-0.007-0.007-0.013-0.015-0.02-0.022
	c-0.189-0.19-0.453-0.309-0.743-0.309c-0.289,0-0.554,0.119-0.743,0.309c-0.007,0.007-0.013,0.015-0.02,0.022
	c-0.007-0.007-0.013-0.015-0.02-0.022c-0.189-0.19-0.453-0.309-0.743-0.309c-0.289,0-0.554,0.119-0.743,0.309
	c-0.164,0.164-0.275,0.383-0.302,0.627c-0.839-0.404-1.779-0.63-2.772-0.63c-1.765,0-3.365,0.716-4.521,1.873
	c-1.157,1.156-1.873,2.757-1.873,4.521c0,1.765,0.716,3.365,1.873,4.521c1.156,1.157,2.757,1.873,4.521,1.873
	c0.992,0,1.933-0.226,2.772-0.63c0.027,0.244,0.138,0.463,0.302,0.627c0.189,0.19,0.453,0.309,0.743,0.309
	c0.171,0,0.332-0.042,0.475-0.115v3.056c0,0.289,0.119,0.554,0.309,0.743C14.53,25.881,14.795,26,15.084,26
	c0.289,0,0.554-0.119,0.743-0.309c0.007-0.007,0.013-0.015,0.02-0.022c0.007,0.007,0.013,0.015,0.02,0.022
	C16.057,25.881,16.321,26,16.61,26c0.289,0,0.554-0.119,0.743-0.309c0.19-0.189,0.309-0.453,0.309-0.743v-3.056
	c0.143,0.073,0.304,0.115,0.475,0.115c0.289,0,0.554-0.119,0.743-0.309c0.164-0.164,0.275-0.383,0.302-0.627
	c0.839,0.404,1.779,0.63,2.772,0.63c1.765,0,3.365-0.716,4.521-1.873c1.157-1.156,1.873-2.757,1.873-4.521
	C28.347,13.544,27.631,11.943,26.474,10.787z M11.696,17.263c-0.501,0.501-1.191,0.81-1.955,0.81c-0.764,0-1.454-0.309-1.955-0.81
	c-0.501-0.501-0.81-1.191-0.81-1.955c0-0.764,0.309-1.454,0.81-1.955c0.501-0.501,1.191-0.81,1.955-0.81
	c0.764,0,1.454,0.309,1.955,0.81c0.501,0.501,0.81,1.191,0.81,1.955C12.506,16.073,12.197,16.762,11.696,17.263z M19.998,13.353
	c0.501-0.501,1.191-0.81,1.955-0.81c0.764,0,1.454,0.309,1.955,0.81c0.501,0.501,0.81,1.191,0.81,1.955
	c0,0.764-0.309,1.454-0.81,1.955c-0.501,0.501-1.191,0.81-1.955,0.81c-0.764,0-1.454-0.309-1.955-0.81
	c-0.501-0.501-0.81-1.191-0.81-1.955C19.188,14.544,19.497,13.855,19.998,13.353z"/>
</svg>
